HIERARCHY
ROOT hip
{
  OFFSET 0 0 0
  CHANNELS 6 Xposition Yposition Zposition Zrotation Yrotation Xrotation
  JOINT abdomen
  {
    OFFSET 0 20.6881 -0.73152
    CHANNELS 3 Zrotation Xrotation Yrotation
    JOINT chest
    {
      OFFSET 0 11.7043 -0.48768
      CHANNELS 3 Zrotation Xrotation Yrotation
      JOINT neck
      {
        OFFSET 0 22.1894 -2.19456
        CHANNELS 3 Zrotation Xrotation Yrotation
        JOINT head
        {
          OFFSET -0.24384 7.07133 1.2192
          CHANNELS 3 Zrotation Xrotation Yrotation
          JOINT leftEye
          {
            OFFSET 4.14528 8.04674 8.04672
            CHANNELS 3 Zrotation Xrotation Yrotation
            End Site
            {
              OFFSET 1 0 0
            }
          }
          JOINT rightEye
          {
            OFFSET -3.6576 8.04674 8.04672
            CHANNELS 3 Zrotation Xrotation Yrotation
            End Site
            {
              OFFSET 1 0 0
            }
          }
        }
      }
      JOINT rCollar
      {
        OFFSET -2.68224 19.2634 -4.8768
        CHANNELS 3 Zrotation Xrotation Yrotation
        JOINT rShldr
        {
          OFFSET -8.77824 -1.95073 1.46304
          CHANNELS 3 Zrotation Xrotation Yrotation
          JOINT rForeArm
          {
            OFFSET -28.1742 -1.7115 0.48768
            CHANNELS 3 Zrotation Xrotation Yrotation
            JOINT rHand
            {
              OFFSET -22.5879 0.773209 7.07136
              CHANNELS 3 Zrotation Xrotation Yrotation
              JOINT rThumb1
              {
                OFFSET -1.2192 -0.487915 3.41376
                CHANNELS 3 Zrotation Xrotation Yrotation
                JOINT rThumb2
                {
                  OFFSET -3.37035 -0.52449 3.41376
                  CHANNELS 3 Zrotation Xrotation Yrotation
                  End Site
                  {
                    OFFSET -1.78271 -1.18214 1.43049
                  }
                }
              }
              JOINT rIndex1
              {
                OFFSET -7.75947 0.938293 5.60832
                CHANNELS 3 Zrotation Xrotation Yrotation
                JOINT rIndex2
                {
                  OFFSET -2.54057 -0.884171 1.56538
                  CHANNELS 3 Zrotation Xrotation Yrotation
                  End Site
                  {
                    OFFSET -1.62519 -0.234802 1.16502
                  }
                }
              }
              JOINT rMid1
              {
                OFFSET -8.24714 1.18213 3.41376
                CHANNELS 3 Zrotation Xrotation Yrotation
                JOINT rMid2
                {
                  OFFSET -3.10165 -0.590103 1.0647
                  CHANNELS 3 Zrotation Xrotation Yrotation
                  End Site
                  {
                    OFFSET -2.48547 -0.328903 0.83742
                  }
                }
              }
              JOINT rRing1
              {
                OFFSET -8.82822 0.546677 1.51678
                CHANNELS 3 Zrotation Xrotation Yrotation
                JOINT rRing2
                {
                  OFFSET -2.60934 -0.819778 -0.0198488
                  CHANNELS 3 Zrotation Xrotation Yrotation
                  End Site
                  {
                    OFFSET -2.33842 -0.294052 0.168128
                  }
                }
              }
              JOINT rPinky1
              {
                OFFSET -8.27202 -0.0477905 -0.4584
                CHANNELS 3 Zrotation Xrotation Yrotation
                JOINT rPinky2
                {
                  OFFSET -1.82734 -0.647385 -0.700984
                  CHANNELS 3 Zrotation Xrotation Yrotation
                  End Site
                  {
                    OFFSET -1.69225 -0.51767 -0.607171
                  }
                }
              }
            }
          }
        }
      }
      JOINT lCollar
      {
        OFFSET 2.68224 19.2634 -4.8768
        CHANNELS 3 Zrotation Xrotation Yrotation
        JOINT lShldr
        {
          OFFSET 8.77824 -1.95073 1.46304
          CHANNELS 3 Zrotation Xrotation Yrotation
          JOINT lForeArm
          {
            OFFSET 28.1742 -1.7115 0.48768
            CHANNELS 3 Zrotation Xrotation Yrotation
            JOINT lHand
            {
              OFFSET 22.5879 0.773209 7.07136
              CHANNELS 3 Zrotation Xrotation Yrotation
              JOINT lThumb1
              {
                OFFSET 1.2192 -0.487915 3.41376
                CHANNELS 3 Zrotation Xrotation Yrotation
                JOINT lThumb2
                {
                  OFFSET 3.37035 -0.52449 3.41376
                  CHANNELS 3 Zrotation Xrotation Yrotation
                  End Site
                  {
                    OFFSET 1.78271 -1.18214 1.43049
                  }
                }
              }
              JOINT lIndex1
              {
                OFFSET 7.75947 0.938293 5.60832
                CHANNELS 3 Zrotation Xrotation Yrotation
                JOINT lIndex2
                {
                  OFFSET 2.54057 -0.884171 1.56538
                  CHANNELS 3 Zrotation Xrotation Yrotation
                  End Site
                  {
                    OFFSET 1.62519 -0.234802 1.16502
                  }
                }
              }
              JOINT lMid1
              {
                OFFSET 8.24714 1.18213 3.41376
                CHANNELS 3 Zrotation Xrotation Yrotation
                JOINT lMid2
                {
                  OFFSET 3.10165 -0.590103 1.0647
                  CHANNELS 3 Zrotation Xrotation Yrotation
                  End Site
                  {
                    OFFSET 2.48547 -0.328903 0.83742
                  }
                }
              }
              JOINT lRing1
              {
                OFFSET 8.82822 0.546677 1.51678
                CHANNELS 3 Zrotation Xrotation Yrotation
                JOINT lRing2
                {
                  OFFSET 2.60934 -0.819778 -0.0198488
                  CHANNELS 3 Zrotation Xrotation Yrotation
                  End Site
                  {
                    OFFSET 2.33842 -0.294052 0.168128
                  }
                }
              }
              JOINT lPinky1
              {
                OFFSET 8.27202 -0.0477905 -0.4584
                CHANNELS 3 Zrotation Xrotation Yrotation
                JOINT lPinky2
                {
                  OFFSET 1.82734 -0.647385 -0.700984
                  CHANNELS 3 Zrotation Xrotation Yrotation
                  End Site
                  {
                    OFFSET 1.69225 -0.51767 -0.607171
                  }
                }
              }
            }
          }
        }
      }
    }
  }
  JOINT rButtock
  {
    OFFSET -8.77824 4.35084 1.2192
    CHANNELS 3 Zrotation Xrotation Yrotation
    JOINT rThigh
    {
      OFFSET 0 -1.70687 -2.19456
      CHANNELS 3 Zrotation Xrotation Yrotation
      JOINT rShin
      {
        OFFSET 0 -36.8199 0.73152
        CHANNELS 3 Zrotation Xrotation Yrotation
        JOINT rFoot
        {
          OFFSET 0.73152 -45.1104 -5.12064
          CHANNELS 3 Zrotation Xrotation Yrotation
          End Site
          {
            OFFSET -1.1221 -3.69964 12.103
          }
        }
      }
    }
  }
  JOINT lButtock
  {
    OFFSET 8.77824 4.35084 1.2192
    CHANNELS 3 Zrotation Xrotation Yrotation
    JOINT lThigh
    {
      OFFSET 0 -1.70687 -2.19456
      CHANNELS 3 Zrotation Xrotation Yrotation
      JOINT lShin
      {
        OFFSET 0 -36.8199 0.73152
        CHANNELS 3 Zrotation Xrotation Yrotation
        JOINT lFoot
        {
          OFFSET -0.73152 -45.1104 -5.12064
          CHANNELS 3 Zrotation Xrotation Yrotation
          End Site
          {
            OFFSET 1.1221 -3.69964 12.103
          }
        }
      }
    }
  }
}
MOTION
Frames:	8
Frame Time:	0.03333
0.0 0.0 0.0 0.0 0.0 0.0 0.0 0.0 0.0 0.0 0.0 0.0 0.0 0.0 0.0 0.0 0.0 0.0 0.0 0.0 0.0 0.0 0.0 0.0 0.0 0.0 0.0 0.0 0.0 0.0 0.0 0.0 0.0 0.0 0.0 0.0 0.0 0.0 0.0 0.0 0.0 0.0 0.0 0.0 0.0 0.0 0.0 0.0 0.0 0.0 0.0 0.0 0.0 0.0 0.0 0.0 0.0 0.0 0.0 0.0 0.0 0.0 0.0 0.0 0.0 0.0 0.0 0.0 0.0 0.0 0.0 0.0 0.0 0.0 0.0 0.0 0.0 0.0 0.0 0.0 0.0 0.0 0.0 0.0 0.0 0.0 0.0 0.0 0.0 0.0 0.0 0.0 0.0 0.0 0.0 0.0 0.0 0.0 0.0 0.0 0.0 0.0 0.0 0.0 0.0 0.0 0.0 0.0 0.0 0.0 0.0 0.0 0.0 0.0 0.0 0.0 0.0 0.0 0.0 0.0 0.0 0.0 0.0 0.0 0.0 0.0 0.0 0.0 0.0 0.0 0.0 0.0
1.2352 49.8579 -2.3973999999999998 -7.415727 6.353639 8.223491 1.144107 14.574394 171.308088 -9.186679 6.537275 -177.959419 -9.21195 24.058615 -16.858321 23.469124 -30.765021 -36.062952 -0.000296 -0.0 0.001272 -0.000296 -0.0 0.001272 -9.653284 34.835755 11.200792 45.426808 9.682224 23.923717 -175.726927 36.293156 37.724559 165.697461 -26.238161 142.256118 178.850982 -18.544517 89.079186 -37.102964 -24.803004 -0.282762 -50.385441 40.827395 40.024133 -1.828717 12.355568 -0.1235 -36.036689 51.722829 29.832721 -176.374305 -42.270112 142.77479 -0.007494 -0.872267 -0.274381 9.859376 6.862652 0.830163 17.603997 61.627855 12.867461 -53.490141 -52.764185 -52.673488 50.91139 -86.503449 72.602706 -178.653043 14.948946 128.873732 -1.299375 -56.809478 -104.252708 9.081243 -11.585342 4.24701 171.604221 -9.285788 -89.950722 -30.178658 -65.011975 -25.009514 -20.932043 -37.332734 5.933561 58.126204 49.879046 -47.262688 151.476632 17.841693 -137.538718 171.097369 -28.32801 -143.83406 0.014981 -1.323238 0.41531 155.318708 -1.335608 -172.011222 145.215721 12.204123 141.860717 76.255322 -52.927054 75.887685 -0.009259 -0.001554 -0.009259 -36.474951 -53.532822 -132.35944 -86.351785 -23.135579 0.408418 176.320261 -18.381345 -81.63453 -0.00775 0.000236 -0.00775 66.081908 -59.138396 180.0 93.509579 -33.334353 -104.435712 93.439113 13.482436 -1.109106
1.9422 51.653400000000005 -3.6653 -7.550454 1.325085 10.387997 0.431472 19.475046 -0.126904 8.286806 -12.774863 -3.666556 6.525862 37.559969 129.732021 -41.238781 34.048314 -176.933815 -0.004931 -0.0 0.002199 0.000885 -0.0 -0.002827 -44.926564 -86.287326 -66.534164 46.41133 51.258577 -51.540861 151.784286 -4.587778 27.141507 178.353044 10.791471 146.117155 -171.603607 -9.286159 89.949952 117.350208 -61.289091 86.137732 -46.209444 39.652112 36.318712 4.118584 3.973181 -1.897935 68.987968 -80.152605 40.582986 91.964558 -78.3924 63.166229 0.003817 1.771471 0.555959 7.305593 26.539568 4.022988 -152.349205 37.910386 -147.68926 -85.422461 -52.117092 -84.331185 9.651938 34.836096 -11.199562 115.335467 -14.371597 -140.393247 1.569702 -13.987249 139.558956 171.061643 0.230595 -142.212881 -51.060311 -41.20337 -12.857362 103.408051 35.083507 -76.760268 153.516271 -21.18121 -121.759646 151.325076 4.389365 -117.955427 86.295939 60.961337 -77.856999 128.937249 51.954957 -118.318305 0.007089 3.558937 -1.120173 -11.149688 -23.586952 2.847172 -12.25286 41.424799 -10.281059 -55.825212 84.848081 18.608077 0.005052 -0.000534 0.002526 -41.443028 -53.902802 -35.987765 25.514529 84.741716 122.299212 -98.303961 -22.410422 -166.70299 -179.985001 75.750175 -0.010263 -150.685093 1.595269 91.012748 96.628646 0.747399 168.281758 -167.735226 36.148653 -116.367084
2.1951 53.442 -4.9592 -7.732589 -4.295227 12.291836 -0.70663 14.713642 -177.219905 -8.063825 8.368223 175.312954 -11.210108 24.339599 -26.406812 32.30543 -27.220278 -22.236711 0.004568 0.0 0.004038 -0.001037 0.0 -0.001504 -48.787203 -86.435006 -70.449788 92.275871 61.494351 -88.0986 79.184338 36.225048 74.998807 -137.734873 69.798153 116.458513 -178.927593 -16.453679 89.421608 -176.51097 -12.838751 96.869004 -13.870445 18.8153 9.290581 0.554618 11.952478 1.895049 -82.840523 61.110797 74.532328 -83.138842 64.162722 75.307457 0.000418 -0.018729 -0.004415 10.330741 0.039675 -0.062554 -23.838626 -36.72763 -22.931294 -126.568701 -30.725079 -125.570585 0.273202 1.606811 -0.36089 45.409958 75.431804 -117.58758 117.63322 6.273299 7.405366 -163.362783 -67.330135 -139.823153 85.828762 38.630402 -47.955959 159.635303 -35.250457 -80.747752 151.353621 -17.158493 -121.132614 167.816373 -28.530964 -118.828979 -2.101086 -6.305269 1.081301 155.991008 15.620861 -139.900333 -0.000298 -0.018624 0.005241 -9.090927 14.086256 -1.869982 153.201399 41.296122 148.284286 -55.73986 82.422505 19.007849 -179.991849 75.749568 -0.005577 153.218575 8.968445 103.451722 73.851974 -16.506731 -29.480846 130.537369 -63.457987 36.983872 179.992708 75.749568 0.006434 -146.275521 3.649753 -84.552657 -91.496365 2.388187 5.987082 41.560132 -41.194903 113.364414
2.1391 55.03209999999999 -6.5151 -8.457151 -9.21699 13.579093 -1.606613 14.598186 -173.649986 -7.575429 8.546695 173.721805 4.858948 38.679061 141.468219 -38.918704 41.197235 176.157067 0.002288 -0.0 -0.001857 -0.003432 0.0 -0.00204 -150.168734 21.535509 155.276007 -32.930129 4.445391 28.678176 104.722124 -34.861143 -109.671358 -138.493261 69.528586 117.141228 11.508948 -11.487136 -0.622062 15.216976 -37.737197 -21.36652 -8.57166 12.508734 5.450651 3.579259 8.98843 1.220687 -159.36522 -2.685422 142.597693 2.670076 1.635483 0.584397 0.004533 1.688523 0.529805 8.940453 14.18146 1.88429 -124.850958 -29.038409 -122.621494 -1.611522 -10.90584 -5.518543 155.513241 -3.575222 -161.850662 122.768216 -86.949793 77.076117 -60.849021 0.766701 -159.442328 68.622259 59.622867 -47.33273 -71.831358 -48.263297 -25.791973 14.789452 -29.714574 26.198579 2.685116 4.227278 -1.582642 151.549002 1.394782 -109.046919 160.097705 -4.901391 -142.968353 -0.009629 8.966901 -1.81051 145.119421 0.309795 179.22635 145.066674 -50.809666 167.343002 82.836131 -50.988999 81.238382 52.305874 -52.527634 53.474244 -179.992256 75.750992 -0.006372 152.449669 9.35327 4.262352 36.414713 70.887633 56.172826 -20.323374 14.740318 -75.178846 -0.0 0.001325 0.001146 63.418243 -49.349739 -21.53485 -89.853925 3.648487 -4.421053 88.926699 -52.172563 163.654009
2.0408 56.493300000000005 -8.082799999999999 -9.394427 -12.155817 14.522895 -1.547622 14.142038 -173.689861 -7.19418 8.012462 174.621283 -14.278361 27.611508 -51.093394 45.157624 -11.235745 0.8516 -0.000693 -0.0 0.004138 -0.000637 0.0 -0.001328 -155.417118 -2.951372 161.718765 147.606528 -26.559823 166.80946 160.73873 41.862975 52.293002 172.865783 -6.566708 145.405672 -85.829207 38.63044 47.955604 76.085639 -48.56061 31.169858 -152.104342 -18.556626 121.368248 -155.276545 -3.203424 118.977363 -125.645215 49.840375 115.274307 -10.684109 32.21912 8.847886 -145.121851 1.974387 -179.748965 11.861202 33.180527 -5.237325 -156.383165 53.733879 -150.118312 -148.765331 13.226208 -142.332248 158.51476 -30.702182 -167.038259 39.116399 3.829786 23.988276 179.501049 8.945457 77.59498 10.852568 -7.726621 3.714352 178.92815 -16.453495 -89.420969 71.718837 5.869788 -19.940322 166.409115 -43.367646 -122.144925 -25.731786 -24.176807 10.128128 -89.036366 -81.391804 -59.762408 42.445563 58.391195 -36.311576 145.099645 -1.522169 178.650124 -12.051529 29.596186 5.64127 143.939624 8.264515 140.720519 -16.274715 41.60241 -5.892948 179.998815 75.748742 0.001223 152.390895 9.430802 -92.703989 -83.550182 -1.370077 -108.263319 30.23589 30.176332 -160.994629 -179.992331 75.750581 -0.005247 -144.285286 7.417076 -0.0 -52.691744 84.311099 -45.075604 101.341023 -47.355356 176.733801
1.8878 57.710300000000004 -9.4403 -9.408274 -13.686693 14.86289 -1.418892 13.790427 -174.067628 -7.119009 7.698862 174.680485 -1.402979 41.537174 -179.930659 -8.239578 56.769754 128.595629 0.000404 0.0 0.0007 0.000756 -0.0 -0.000818 -29.827307 58.184565 32.232461 -70.699213 41.829875 106.01523 -160.49926 -17.549019 -69.950297 -2.911516 13.109624 0.46026 -94.791258 37.82868 54.284124 4.998267 -21.208463 24.933206 -150.885357 -16.291547 120.978566 -167.900517 -28.512868 118.820897 -89.835713 60.702855 81.262815 -163.296781 -5.432737 143.223918 -145.119424 0.267771 -179.21247 -156.351923 12.494465 179.292765 -113.838283 -39.284046 -111.846969 -136.046925 -14.354285 -133.748525 -4.2396 -44.74276 8.647453 -68.978598 27.519528 26.558552 -12.236267 28.72443 -99.422504 12.501536 -2.143123 2.757961 94.791604 37.828978 -54.283934 91.845077 -5.480642 -63.354659 12.942155 17.784159 -8.598321 162.921041 -12.58865 -110.307438 36.035338 51.72329 -29.832277 171.963202 -31.376801 -143.992976 145.112365 -0.627471 178.931819 150.285019 -35.130159 173.023081 43.362927 -47.546201 42.162674 -16.517195 43.799222 -7.977743 -0.000896 -0.000321 0.001152 -49.51255 -49.05163 -57.186018 -63.688196 67.234373 -31.653644 12.351441 -20.329829 105.25101 179.980242 75.749963 0.013518 -145.571902 7.030782 87.66051 91.519505 -1.191993 68.790527 60.912288 59.863184 -174.47254
1.6738 58.7267 -10.5341 -9.297554 -15.027235 14.933201 -1.074368 13.600562 -175.440285 -7.732116 7.504611 175.316868 2.320216 40.047246 158.108175 -30.043155 49.457751 159.446846 -0.001775 -0.0 0.000565 0.003946 0.0 0.000791 0.071114 -0.427722 -0.095503 49.977328 12.568673 0.525392 -172.308017 4.520766 38.648192 163.587824 -30.854715 141.005781 9.726976 -9.718226 -0.678901 16.363785 -37.537703 -20.514967 -166.8223 -43.973836 122.0609 -46.14765 55.052455 34.144698 -0.057654 0.167999 0.030739 -88.69677 64.081778 80.425077 0.006287 1.770563 0.555417 -5.88871 61.780364 18.400993 -1.202727 -3.04805 -1.114011 -147.278422 11.679266 -143.694578 44.913731 -86.288271 66.521725 94.31908 -36.531449 110.973935 -32.997946 9.096303 146.79421 153.013853 37.308568 -128.184819 78.030504 38.689283 -42.41278 -59.482357 -43.690009 -23.041223 93.640996 40.180272 -78.832417 -155.464741 -56.285803 -97.51385 17.369156 35.632332 -12.954263 -3.286559 0.212141 -0.042576 145.120816 1.974877 179.747977 -11.650835 26.185624 6.012313 -12.989695 44.34409 -10.761408 159.028961 50.139301 149.278385 -0.000304 -0.001203 0.000391 -49.386949 -46.809545 -180.0 -80.329405 -44.04665 -144.977026 -47.411265 -33.420555 -151.986887 179.99954 75.749781 -0.0 -143.482395 7.752133 -91.487427 -89.248269 0.082734 -89.949422 145.154198 21.949599 152.747964
